<svg xmlns="http://www.w3.org/2000/svg" viewBox="0 0 512 512"><circle cx="256" cy="256" r="256" fill="#1e8ec0"/><path fill="#decee5" d="M256,77.37A178.63,178.63,0,1,0,434.63,256,177.83,177.83,0,0,0,256,77.37Zm0,34.23a144,144,0,0,1,102.39,42.59,11,11,0,0,0-14.18-.74l-7.07,5.35a25,25,0,0,0-6.64,32.26l15.72,27.67a61.07,61.07,0,0,1,5.18,48.41L327.65,343l-52.9-153.78H293a5,5,0,0,0,0-10H215.11a5.18,5.18,0,0,0,0,10.35h13.78l23.24,59.31L220,343l-53.2-153.48h17.45a5.18,5.18,0,0,0,0-10.35H133.7A144.3,144.3,0,0,1,256,111.6ZM213.62,394.07l44.62-127.46,47.29,125.07a145,145,0,0,1-91.91,2.39Zm-19.33-7.5a144.41,144.41,0,0,1-82.48-122.82q-.21-3.86-.21-7.75a144,144,0,0,1,12.1-57.92l70.59,188.48Zm133.42-5.21,54.4-156.67a56.59,56.59,0,0,0-2.9-44,144.46,144.46,0,0,1-51.5,200.69Z"/><path fill="#f9f2f9" d="M256,77.37a177.83,177.83,0,0,0-82.86,20.34,178.91,178.91,0,0,0-61.33,166q-.21-3.86-.21-7.75a144,144,0,0,1,12.1-57.92l70.59,188.48a178.85,178.85,0,0,0,176.58,6.24A178.63,178.63,0,0,0,256,77.37Zm0,323a144.3,144.3,0,0,1-42.38-6.33l44.62-127.46,47.29,125.07A144.15,144.15,0,0,1,256,400.4Zm18.75-211.14H293a5,5,0,0,0,0-10H215.11a5.18,5.18,0,0,0,0,10.35h13.78l23.24,59.31L220,343l-53.2-153.48h17.45a5.18,5.18,0,0,0,0-10.35H133.7a144.4,144.4,0,0,1,224.69-25,11,11,0,0,0-14.18-.74l-7.07,5.35a25,25,0,0,0-6.64,32.26l15.72,27.67a61.07,61.07,0,0,1,5.18,48.41L327.65,343Zm53,192.1,54.4-156.67a56.59,56.59,0,0,0-2.9-44,144.46,144.46,0,0,1-51.5,200.69Z"/><ellipse cx="270.03" cy="220.3" fill="#fff" rx="12.68" ry="23.01" transform="rotate(-18.17 270.118 220.337)"/><ellipse cx="359.19" cy="171.6" fill="#fff" rx="8.94" ry="16.21" transform="rotate(-30 359.198 171.607)"/><ellipse cx="371.95" cy="202.56" fill="#fff" rx="6.39" ry="11.59" transform="rotate(-3.21 372.383 202.77)"/><ellipse cx="289.2" cy="95.95" fill="#fff" rx="13.57" ry="25.42" transform="rotate(-80.31 289.192 95.955)"/><ellipse cx="334.03" cy="109.81" fill="#fff" rx="10.1" ry="17.48" transform="rotate(-62.37 334.022 109.82)"/><ellipse cx="284.36" cy="263.96" fill="#fff" rx="8.64" ry="17.94" transform="rotate(-18.17 284.457 264.03)"/><ellipse cx="161.63" cy="220.3" fill="#fff" rx="12.68" ry="23.01" transform="rotate(-18.17 161.695 220.348)"/><ellipse cx="175.96" cy="263.96" fill="#fff" rx="8.64" ry="17.94" transform="rotate(-18.17 176.033 264.04)"/></svg>